<svg width="24" height="25" viewBox="0 0 24 25" fill="none" xmlns="http://www.w3.org/2000/svg">
<path d="M18.07 10.8199C17.88 10.8199 17.69 10.7499 17.54 10.5999L12 5.05994L6.46 10.5999C6.17 10.8899 5.69 10.8899 5.4 10.5999C5.11 10.3099 5.11 9.82994 5.4 9.53994L11.47 3.46994C11.76 3.17994 12.24 3.17994 12.53 3.46994L18.6 9.53994C18.89 9.82994 18.89 10.3099 18.6 10.5999C18.46 10.7499 18.26 10.8199 18.07 10.8199Z" fill="#161E42"/>
<path d="M12 21.7499C11.59 21.7499 11.25 21.4099 11.25 20.9999V4.16992C11.25 3.75992 11.59 3.41992 12 3.41992C12.41 3.41992 12.75 3.75992 12.75 4.16992V20.9999C12.75 21.4099 12.41 21.7499 12 21.7499Z" fill="#161E42"/>
</svg>
