<svg width="32" height="32" viewBox="0 0 32 32" fill="none" xmlns="http://www.w3.org/2000/svg">
<rect width="32" height="32" rx="3" fill="white"/>
<path d="M17.028 6.00099C17.7578 5.99819 18.4875 6.00552 19.217 6.02299L19.411 6.02999C19.635 6.03799 19.856 6.04799 20.123 6.05999C21.187 6.10999 21.913 6.27799 22.55 6.52499C23.21 6.77899 23.766 7.12299 24.322 7.67899C24.8304 8.17859 25.2239 8.78293 25.475 9.44999C25.722 10.087 25.89 10.814 25.94 11.878C25.952 12.144 25.962 12.366 25.97 12.59L25.976 12.784C25.9938 13.5132 26.0015 14.2426 25.999 14.972L26 15.718V17.028C26.0025 17.7577 25.9948 18.4875 25.977 19.217L25.971 19.411C25.963 19.635 25.953 19.856 25.941 20.123C25.891 21.187 25.721 21.913 25.475 22.55C25.2247 23.2177 24.8311 23.8226 24.322 24.322C23.822 24.8303 23.2173 25.2237 22.55 25.475C21.913 25.722 21.187 25.89 20.123 25.94C19.856 25.952 19.635 25.962 19.411 25.97L19.217 25.976C18.4875 25.9938 17.7578 26.0014 17.028 25.999L16.282 26H14.973C14.2433 26.0025 13.5136 25.9948 12.784 25.977L12.59 25.971C12.3526 25.9624 12.1153 25.9524 11.878 25.941C10.814 25.891 10.088 25.721 9.45003 25.475C8.78271 25.2243 8.17827 24.8308 7.67903 24.322C7.17007 23.8223 6.77625 23.2175 6.52503 22.55C6.27803 21.913 6.11003 21.187 6.06003 20.123C6.04889 19.8857 6.03889 19.6484 6.03003 19.411L6.02503 19.217C6.00659 18.4875 5.99826 17.7577 6.00003 17.028V14.972C5.99724 14.2426 6.00457 13.5132 6.02203 12.784L6.02903 12.59C6.03703 12.366 6.04703 12.144 6.05903 11.878C6.10903 10.813 6.27703 10.088 6.52403 9.44999C6.7754 8.78261 7.16999 8.17843 7.68003 7.67999C8.17892 7.17074 8.78299 6.77656 9.45003 6.52499C10.088 6.27799 10.813 6.10999 11.878 6.05999L12.59 6.02999L12.784 6.02499C13.5132 6.00656 14.2426 5.99823 14.972 5.99999L17.028 6.00099ZM16 11.001C15.3375 10.9916 14.6798 11.114 14.065 11.3611C13.4502 11.6081 12.8907 11.9749 12.4189 12.44C11.9471 12.9052 11.5724 13.4595 11.3167 14.0707C11.061 14.682 10.9293 15.3379 10.9293 16.0005C10.9293 16.663 11.061 17.319 11.3167 17.9302C11.5724 18.5414 11.9471 19.0958 12.4189 19.5609C12.8907 20.0261 13.4502 20.3929 14.065 20.6399C14.6798 20.887 15.3375 21.0094 16 21C17.3261 21 18.5979 20.4732 19.5356 19.5355C20.4732 18.5978 21 17.3261 21 16C21 14.6739 20.4732 13.4021 19.5356 12.4645C18.5979 11.5268 17.3261 11.001 16 11.001ZM16 13.001C16.3985 12.9936 16.7945 13.0658 17.1648 13.2132C17.5351 13.3606 17.8724 13.5803 18.1568 13.8595C18.4412 14.1387 18.6672 14.4718 18.8215 14.8393C18.9757 15.2068 19.0552 15.6014 19.0553 16C19.0554 16.3986 18.976 16.7931 18.8219 17.1607C18.6677 17.5283 18.4419 17.8614 18.1575 18.1407C17.8732 18.42 17.536 18.6399 17.1658 18.7874C16.7955 18.9349 16.3995 19.0072 16.001 19C15.2054 19 14.4423 18.6839 13.8797 18.1213C13.3171 17.5587 13.001 16.7956 13.001 16C13.001 15.2043 13.3171 14.4413 13.8797 13.8787C14.4423 13.3161 15.2054 13 16.001 13L16 13.001ZM21.25 9.50099C20.9274 9.5139 20.6223 9.65114 20.3986 9.88396C20.1749 10.1168 20.05 10.4271 20.05 10.75C20.05 11.0729 20.1749 11.3832 20.3986 11.616C20.6223 11.8488 20.9274 11.9861 21.25 11.999C21.5815 11.999 21.8995 11.8673 22.1339 11.6329C22.3683 11.3984 22.5 11.0805 22.5 10.749C22.5 10.4175 22.3683 10.0995 22.1339 9.8651C21.8995 9.63068 21.5815 9.49899 21.25 9.49899V9.50099Z" fill="#100420"/>
</svg>
